# xmcd CD database file
#
# Track frame offsets:
#	150
#	5925
#	17311
#	31079
#	47831
#	66612
#	76582
#	105511
#	130821
#	145901
#	172381
#	187181
#	191317
#	194579
#	197529
#	202958
#	208024
#	219260
#	228090
#	239876
#	249024
#
# Disc length: 3416 seconds
#
# Revision: 3
# Processed by: cddbd v1.5.2PL0 Copyright (c) Steve Scherf et al.
# Submitted via: CDex 1.51
#
DISCID=290d5615
DTITLE=Rachmaninoff - From Russia To America - Miscellany  (Nils Franke, piano)
DYEAR=2008
DGENRE=Classique
TTITLE0=Song without Words in D minor - Lento
TTITLE1=Four Pieces - Romance in F sharp minor - Andante
TTITLE2=Four Pieces - Prélude in E flat minor - Allegro
TTITLE3=Four Pieces - Mélodie in E major - Andante
TTITLE4=Four Pieces - Gavotte in D major - Liberamente
TTITLE5=Canon in E minor - Andante con moto
TTITLE6=Suite in D minor from a lost orchestral original - Lento-Allegro moderato in D minor
TTITLE7=Suite in D minor from a lost orchestral original - Lento in B minor
TTITLE8=Suite in D minor from a lost orchestral original - Menuetto in F sharp major
TTITLE9=Suite in D minor from a lost orchestral original - Allegro in D major
TTITLE10=Prélude in F major - Comodo - Più mosso - Tempo I 
TTITLE11=Four improvisations on Themes of Arensky, Glazunov, Taneyev and Rachmaninoff - I. Moderato in E minor
TTITLE12=Four improvisations - II. Allegretto in C major
TTITLE13=Four improvisations - III. Allegro scherzando in B flat minor
TTITLE14=Four improvisations - IV. Lento-Tempo di valse-Tempo di marcia-Tempo del commincio, largo in F minor
TTITLE15=Morceau de fantaisie in G Minor - Liberamente
TTITLE16=Fughetta in G minor - Moderato
TTITLE17=Oriental Sketch in B flat major - Non allegro
TTITLE18=Piece (Prelude) in D minor - Andante ma non troppo - Poco più mosso - Tempo I
TTITLE19=Fragments in A flat major - Andante semplice - Più mosso - Come prima
TTITLE20=The Star-Spangled Banner in B flat major
EXTD=YEAR: 2008
EXTT0=
EXTT1=
EXTT2=
EXTT3=
EXTT4=
EXTT5=
EXTT6=
EXTT7=
EXTT8=
EXTT9=
EXTT10=
EXTT11=
EXTT12=
EXTT13=
EXTT14=
EXTT15=
EXTT16=
EXTT17=
EXTT18=
EXTT19=
EXTT20=
PLAYORDER=
